<svg width="126" height="37" viewBox="0 0 126 37" fill="currentColor" xmlns="http://www.w3.org/2000/svg">
<path d="M112.023 19.0558C112.023 18.7678 111.991 18.4318 111.927 18.0478V17.7118C111.959 17.4878 111.943 17.2478 111.879 16.9918C111.879 16.6718 111.911 16.3838 111.975 16.1278C111.975 15.4878 112.055 15.0718 112.215 14.8798C112.215 14.7198 112.439 14.3518 112.887 13.7758C113.015 13.6478 113.255 13.4398 113.607 13.1518C114.119 12.9918 114.471 12.8958 114.663 12.8638C114.791 12.7358 115.223 12.7838 115.959 13.0078C116.279 13.0398 116.775 13.1518 117.447 13.3438C117.671 13.4078 117.959 13.6638 118.311 14.1118C118.247 14.2398 118.135 14.7198 117.975 15.5518C117.847 16.3518 117.799 17.0078 117.831 17.5198C118.023 17.3598 118.359 17.0238 118.839 16.5118C119.319 15.9998 119.575 15.7278 119.607 15.6958C120.439 15.3118 121.255 15.0398 122.055 14.8798C123.207 14.7838 123.959 14.8638 124.311 15.1198C124.599 15.2158 124.823 15.3598 124.983 15.5518C125.271 15.8078 125.511 16.2558 125.703 16.8958C125.895 17.5038 125.879 17.8878 125.655 18.0478C125.463 18.2078 124.823 18.3358 123.735 18.4318C123.671 18.4318 123.447 18.5598 123.063 18.8158L120.567 20.7838C120.055 21.0398 119.703 21.2638 119.511 21.4558L118.599 23.1358C118.567 23.1998 118.535 23.6158 118.503 24.3838C118.471 25.1518 118.471 25.7118 118.503 26.0638C118.535 26.3838 118.535 27.4558 118.503 29.2798V31.3438C118.503 32.4638 118.487 33.1038 118.455 33.2638C118.423 33.4558 118.295 33.7758 118.071 34.2238C117.975 34.3838 117.671 34.4638 117.159 34.4638C115.911 35.3918 115.111 35.3438 114.759 34.3198L114.135 33.9358C113.879 33.8078 113.719 33.6478 113.655 33.4558C113.399 33.1038 113.271 32.8958 113.271 32.8318L113.079 32.1598L112.791 31.5838C112.695 31.5518 112.615 30.9438 112.551 29.7598C112.487 28.5438 112.455 27.8078 112.455 27.5518C112.455 27.2638 112.423 26.9598 112.359 26.6398C112.583 26.4158 112.679 26.0318 112.647 25.4878C112.647 24.9438 112.615 24.5278 112.551 24.2398C112.487 23.9198 112.487 23.7278 112.551 23.6638C112.615 23.5678 112.599 23.1198 112.503 22.3198C112.407 22.1918 112.391 21.9518 112.455 21.5998L112.023 19.0558Z" fill="currentColor"/>
<path d="M102.424 15.5998C102.36 15.4398 102.136 15.3758 101.752 15.4078C101.4 15.4398 101.128 15.6318 100.936 15.9838C99.6238 18.0638 98.9198 20.2878 98.8238 22.6558C99.9118 22.9118 100.84 22.4318 101.608 21.2158C102.6 18.0798 102.872 16.2078 102.424 15.5998ZM98.6797 34.6558L98.1998 34.5598L97.5277 33.8878C97.3357 33.8878 97.1917 33.8078 97.0957 33.6478C96.7437 33.2318 96.1038 32.3998 95.1758 31.1518L94.4557 28.5118C94.4557 27.9998 94.3598 27.5518 94.1678 27.1678C93.8478 25.7278 93.6558 24.9118 93.5918 24.7198C93.5278 24.4958 93.4798 23.9038 93.4478 22.9438C93.4478 21.9838 93.4958 21.2798 93.5918 20.8318C93.6878 20.2238 94.2798 18.7198 95.3678 16.3198C95.6558 16.0318 95.8318 15.6478 95.8958 15.1678L96.6637 14.0638C97.3677 13.2318 98.1198 12.6238 98.9198 12.2398C98.9198 12.1758 99.4637 12.0158 100.552 11.7598C100.776 11.7278 101.288 11.8078 102.088 11.9998C104.008 12.4478 105.208 13.0078 105.688 13.6798L105.832 13.9198C106.44 14.7838 106.792 16.1118 106.888 17.9038C106.792 18.7038 106.712 19.3758 106.648 19.9198C106.584 20.4638 106.232 21.4558 105.592 22.8958C105.112 23.7918 104.648 24.5118 104.2 25.0558C103.496 25.5678 103.016 25.8238 102.76 25.8238C102.632 25.8878 102.36 25.9198 101.944 25.9198H100.84C100.744 25.8878 100.536 25.8718 100.216 25.8718C99.8958 25.8718 99.4318 25.7918 98.8238 25.6318C98.8238 26.3358 99.0157 27.3438 99.3997 28.6558C99.8157 29.9358 100.152 30.7198 100.408 31.0078C101.08 31.5198 101.608 31.8558 101.992 32.0158C102.376 32.1758 102.888 32.2078 103.528 32.1118C104.168 31.9838 104.632 31.7598 104.92 31.4398L106.168 29.9038C106.968 28.8158 107.784 28.7198 108.616 29.6158C109 30.0318 109.144 30.4478 109.048 30.8638C108.984 31.2478 108.664 32.0318 108.088 33.2158C107.608 33.9838 107.096 34.6238 106.552 35.1358C105.56 35.6478 104.968 35.9038 104.776 35.9038C104.488 35.9358 104.04 35.8878 103.432 35.7598C103.112 35.9198 102.568 35.9038 101.8 35.7118C101.8 35.6478 101.704 35.5998 101.512 35.5678C101.352 35.5678 101.128 35.5198 100.84 35.4238L100.936 35.3758C100.872 35.3758 100.68 35.3758 100.36 35.3758L99.0158 34.6558H98.6797Z" fill="currentColor"/>
<path d="M86.7813 1.91969L87.9813 1.67969C88.7493 1.77569 89.3253 1.98369 89.7093 2.30369C90.1253 2.62369 90.3173 2.99169 90.2853 3.40769C89.8053 5.03969 89.4213 6.75169 89.1333 8.54369V9.26369C89.0053 10.7677 88.8293 12.0477 88.6053 13.1037L87.4533 24.0477V27.3597C87.4213 29.8877 87.5653 31.8877 87.8853 33.3597L87.9813 33.9357C87.9493 34.3197 87.6613 34.5757 87.1173 34.7037C86.6053 34.8637 86.2693 34.9277 86.1093 34.8957C85.9493 34.8637 85.7733 34.8157 85.5813 34.7517L84.2853 34.2717C83.7733 34.0157 83.2133 33.5517 82.6053 32.8797C82.2213 32.5277 82.0613 32.2717 82.1253 32.1117C82.0613 31.9837 81.9013 30.5277 81.6453 27.7437C81.7093 27.1677 81.7413 26.6877 81.7413 26.3037V25.4877C81.7413 24.8477 81.7573 24.3837 81.7893 24.0957C81.7893 24.0317 81.8213 23.6477 81.8853 22.9437C82.0453 21.1197 82.1413 20.1277 82.1733 19.9677V19.1997C82.1733 17.3117 82.3333 15.7917 82.6533 14.6397C82.5893 14.3837 82.5573 14.1437 82.5573 13.9197C82.8773 13.3117 82.9893 12.0637 82.8933 10.1757C83.4373 8.25569 83.7573 6.97569 83.8533 6.33569C83.9493 5.66369 84.0933 5.15169 84.2853 4.79969C84.2853 4.22369 84.5413 3.64769 85.0533 3.07169C85.5653 2.46369 86.1413 2.07969 86.7813 1.91969Z" fill="currentColor"/>
<path d="M65.7413 25.008C65.7413 25.424 65.7093 25.936 65.6453 26.544C65.5813 27.152 65.7413 28.128 66.1253 29.472C66.2853 30.4 66.4453 30.992 66.6053 31.248C66.8293 31.248 67.0373 31.008 67.2293 30.528C67.2293 30.496 67.3413 30.272 67.5653 29.856C67.6613 29.824 67.9813 29.376 68.5253 28.512C68.7173 28.128 68.9093 27.744 69.1013 27.36C69.1973 26.688 69.4213 26.096 69.7733 25.584C70.1253 25.04 70.3973 24.576 70.5893 24.192C70.7813 23.776 70.8613 23.232 70.8293 22.56C70.8293 22.304 70.7173 21.536 70.4933 20.256C70.4293 20.096 70.3013 19.744 70.1093 19.2C69.9493 18.624 69.7253 18.224 69.4373 18C69.1813 17.744 68.9093 17.632 68.6213 17.664C68.3333 17.696 67.9813 18.144 67.5653 19.008C67.0533 20.032 66.6853 21.024 66.4613 21.984C66.2373 22.944 66.0933 23.52 66.0293 23.712C65.9333 24 65.8853 24.256 65.8853 24.48L65.7413 25.008ZM71.7893 0.24C72.4613 0.143999 72.8613 0.112 72.9893 0.144001C73.1493 0.144001 73.4853 0.0960007 73.9973 0C74.6693 0.799999 75.0853 1.392 75.2453 1.776L75.5813 3.024C75.8373 3.28 75.9653 3.52 75.9653 3.744C76.0293 4.224 76.0773 4.64 76.1093 4.992C76.1733 5.312 76.2053 5.76 76.2053 6.336C76.2053 7.168 76.0933 9.056 75.8693 12C75.6453 14.912 75.4373 17.008 75.2453 18.288L75.5333 20.928C76.0133 23.552 76.3173 24.976 76.4453 25.2C76.6373 26.416 77.0373 27.536 77.6453 28.56L77.7413 28.944L78.4613 30.144C78.6853 30.624 78.7813 31.104 78.7493 31.584C78.7493 32.064 78.7013 32.4 78.6053 32.592C78.1573 33.488 77.7093 33.968 77.2613 34.032C77.0373 34.128 76.6853 34.128 76.2053 34.032C75.7893 34.032 75.4853 33.936 75.2933 33.744C75.1973 33.744 75.0693 33.728 74.9093 33.696C74.4293 33.792 74.1253 33.68 73.9973 33.36C73.8053 33.168 73.5813 32.832 73.3253 32.352C73.1013 31.84 72.8293 31.408 72.5093 31.056L72.2693 30.528C72.1413 29.952 72.0613 29.664 72.0293 29.664C72.0293 29.632 72.0133 29.552 71.9813 29.424L70.3013 32.064C70.2373 32.288 69.8213 32.928 69.0533 33.984L68.4293 34.512C68.0453 34.704 67.4853 34.752 66.7493 34.656C66.6853 34.688 66.4133 34.704 65.9333 34.704L63.2453 34.224C62.6693 33.84 62.1733 33.232 61.7573 32.4C61.5013 31.952 61.3733 31.584 61.3733 31.296C61.3733 30.976 61.2293 30.352 60.9413 29.424L60.8453 28.704V28.416L60.7973 27.744C60.8613 27.616 60.8293 27.344 60.7013 26.928L60.6533 26.496V25.68C60.6533 25.488 60.7013 25.12 60.7973 24.576C60.8293 24.16 60.8293 23.696 60.7973 23.184C60.7973 22.64 60.8133 22.256 60.8453 22.032C60.7813 21.712 60.7973 21.44 60.8933 21.216C60.8293 20.992 60.8453 20.608 60.9413 20.064C60.9413 19.712 61.2133 18.912 61.7573 17.664C61.6613 17.152 61.8853 16.576 62.4293 15.936C62.4293 15.904 62.5893 15.664 62.9093 15.216C63.0053 15.12 63.2453 14.992 63.6293 14.832L64.7813 14.064C65.9973 13.712 67.1173 13.648 68.1413 13.872L70.0613 14.544C70.1253 14.064 70.1093 12.48 70.0133 9.792C70.0133 9.408 70.0613 8.576 70.1573 7.296C70.2853 5.984 70.3813 4.72 70.4453 3.504L71.0213 1.488C71.0213 1.136 71.0853 0.879999 71.2133 0.719999L71.7893 0.24Z" fill="currentColor"/>
<path d="M48.9149 21.024L48.8189 20.304C48.7229 20.176 48.6589 20.016 48.6269 19.824C48.6269 19.6 48.5789 19.264 48.4829 18.816C48.4829 18.24 48.3389 17.728 48.0509 17.28C47.9549 17.024 47.5709 16.944 46.8989 17.04C46.4509 17.488 45.9229 18.752 45.3149 20.832C45.3149 20.864 45.2669 20.992 45.1709 21.216C45.0429 21.504 44.9149 21.984 44.7869 22.656C44.6589 23.296 44.5789 23.664 44.5469 23.76C44.4829 23.952 44.4509 24.128 44.4509 24.288C44.3869 24.416 44.3549 24.624 44.3549 24.912L44.1629 25.824C44.0349 26.016 44.0029 26.256 44.0669 26.544V27.216C44.0989 27.312 44.0829 27.584 44.0189 28.032V28.704L44.1149 30.336C44.1149 30.72 44.4349 31.344 45.0749 32.208C45.3309 32.272 45.4909 32.256 45.5549 32.16C46.1949 31.52 46.5469 30.864 46.6109 30.192L46.7549 29.568C46.9149 29.408 47.0429 28.928 47.1389 28.128L47.3789 27.312C47.3789 27.024 47.4429 26.72 47.5709 26.4C47.6989 26.08 47.7789 25.84 47.8109 25.68C47.8109 25.424 48.0189 24.784 48.4349 23.76C48.4029 23.664 48.3869 23.568 48.3869 23.472V23.136C48.7389 21.76 48.9149 21.056 48.9149 21.024ZM55.0109 5.51999C55.0109 6.63998 54.9469 7.32798 54.8189 7.58398L54.4829 10.704V12.336C54.4509 12.88 54.4349 13.696 54.4349 14.784C54.4349 15.872 54.4509 16.784 54.4829 17.52C54.5469 18.224 54.5149 18.816 54.3869 19.296C54.4509 19.36 54.4829 19.472 54.4829 19.632L54.5309 20.016L54.4829 21.12V23.136C54.5149 23.488 54.5309 24.096 54.5309 24.96C54.5949 25.696 54.6269 26.288 54.6269 26.736C54.6269 27.184 54.6749 27.632 54.7709 28.08V28.704L54.9629 30.672V32.304C55.0269 32.528 55.0589 32.752 55.0589 32.976C55.0589 33.168 55.1229 33.504 55.2509 33.984C55.4109 34.496 55.4749 34.96 55.4429 35.376C54.5469 36.432 53.4109 36.688 52.0349 36.144C51.7469 36.112 51.4429 35.952 51.1229 35.664C50.8349 35.376 50.6589 35.088 50.5949 34.8L50.5469 33.84C50.3869 33.808 50.2909 33.536 50.2589 33.024C50.1309 32.832 50.0829 32.672 50.1149 32.544C50.2109 32.384 50.1309 32.112 49.8749 31.728L49.3469 32.64C49.1869 32.896 49.0109 33.056 48.8189 33.12L48.6269 33.696C48.1789 34.176 47.8429 34.576 47.6189 34.896L47.0429 35.472C46.2749 35.632 45.2189 35.568 43.8749 35.28C43.5549 35.28 43.2989 35.248 43.1069 35.184H42.7709C42.7069 35.248 42.3549 35.104 41.7149 34.752C41.1709 34.528 40.8829 34.32 40.8509 34.128L41.1389 34.176C40.6909 33.984 40.5309 33.68 40.6589 33.264C40.2749 33.104 40.0349 32.752 39.9389 32.208L39.5069 30.576C39.4429 30.16 39.4589 29.712 39.5549 29.232C39.4909 29.104 39.5709 28.672 39.7949 27.936L39.6509 27.504L39.5549 26.64C39.4589 26.512 39.4749 26.224 39.6029 25.776L39.3149 25.296C39.3149 24.016 39.3629 23.232 39.4589 22.944L39.5069 22.32C39.3469 22.064 39.3949 21.52 39.6509 20.688L40.3229 18.48C40.3229 18.416 40.3709 18.128 40.4669 17.616C40.6269 16.816 40.8189 16.304 41.0429 16.08L41.9069 14.64C42.0669 14.48 42.2429 14.24 42.4349 13.92C42.7549 13.344 43.4269 13.056 44.4509 13.056C45.5069 12.896 47.2029 13.024 49.5389 13.44V11.76L49.3949 9.74399C49.3949 8.78399 49.3629 7.90398 49.2989 7.10399C49.2669 6.30399 49.2829 5.66399 49.3469 5.18398C49.3789 5.15198 49.5389 4.49599 49.8269 3.21599C50.1149 1.93599 50.5949 0.975985 51.2669 0.335984C51.4909 0.207985 51.8909 0.127986 52.4669 0.095984C53.0749 0.0639845 53.4429 0.095985 53.5709 0.191986C53.6989 0.287984 53.8749 0.367984 54.0989 0.431985C54.9949 0.687986 55.4429 1.50399 55.4429 2.87999L55.0109 5.51999Z" fill="currentColor"/>
<path d="M29.5799 19.0559C29.3559 17.7759 28.7319 17.1839 27.7079 17.2799C27.1319 17.3119 26.6359 17.6959 26.2199 18.4319C25.6439 19.5519 25.3879 21.0079 25.4519 22.7999C25.5479 24.5599 25.6759 25.8399 25.8359 26.6399C26.0279 27.4079 26.3479 28.0799 26.7959 28.6559C27.0519 29.1039 27.4359 29.3119 27.9479 29.2799C28.8439 29.2799 29.4999 28.5279 29.9159 27.0239L30.2999 25.8719C30.4599 25.7119 30.4919 25.5519 30.3959 25.3919C30.7159 24.5919 30.8919 23.6479 30.9239 22.5599C30.6039 22.3359 30.4119 22.1279 30.3479 21.9359C30.1559 21.3919 30.0599 21.0239 30.0599 20.8319C29.8359 20.6719 29.7079 20.3679 29.6759 19.9199C29.6439 19.4719 29.6119 19.1839 29.5799 19.0559ZM20.7959 23.5679L20.9879 21.1199C21.2119 18.9119 21.8839 17.0239 23.0039 15.4559C24.0919 14.1439 25.6279 13.4719 27.6119 13.4399H27.8999C29.7559 13.4399 31.0999 13.8399 31.9319 14.6399C32.8279 15.3439 33.4839 16.1119 33.8999 16.9439C34.3479 17.7759 34.6359 18.3839 34.7639 18.7679C34.8919 19.1519 34.9719 19.7119 35.0039 20.4479C35.0679 21.8239 34.7959 22.6079 34.1879 22.7999C34.6359 25.8399 34.3639 28.2559 33.3719 30.0479C33.0519 30.7839 32.5879 31.5839 31.9799 32.4479C31.5319 33.0239 30.7319 33.3439 29.5799 33.4079C28.4279 33.4079 27.4199 33.3439 26.5559 33.2159C25.7239 33.0879 24.7959 32.6879 23.7719 32.0159C22.7479 31.3119 22.0279 30.1759 21.6119 28.6079C21.1639 27.1039 20.8919 25.4239 20.7959 23.5679Z" fill="currentColor"/>
<path d="M14.88 7.24787C14.816 7.82387 14.784 8.41587 14.784 9.02387C14.784 10.1759 14.72 11.2159 14.592 12.1439C14.464 13.0719 14.384 13.7119 14.352 14.0639C14.32 14.3839 14.272 14.7039 14.208 15.0239V15.3599C14.208 15.9359 14.08 16.5119 13.824 17.0879L13.68 19.2479L13.488 23.8079V26.2079C13.488 27.4239 13.424 28.0799 13.296 28.1759L13.344 29.4239V29.9519L13.296 30.5279C13.296 30.6559 13.264 30.7199 13.2 30.7199C13.264 31.1039 13.104 31.5199 12.72 31.9679C12.368 32.3839 11.92 32.6559 11.376 32.7839L10.512 32.9279C10.384 32.9279 10.208 32.9439 9.984 32.9759C9.76 32.9759 9.568 32.9439 9.408 32.8799C9.248 32.8159 9.088 32.7359 8.928 32.6399C8.608 32.4479 8.384 32.0799 8.256 31.5359C8.16 31.3759 7.968 30.3999 7.68 28.6079C7.68 28.2239 7.648 27.7439 7.584 27.1679L7.728 26.0159V25.1039C7.728 24.5279 7.792 24.1279 7.92 23.9039C7.792 23.7119 7.872 23.2959 8.16 22.6559C7.936 22.3679 7.952 21.7279 8.208 20.7359C8.08 20.3199 8.08 20.0479 8.208 19.9199C8.272 19.7279 8.304 19.2799 8.304 18.5759L8.352 18.0959C8.352 17.1679 8.448 16.3199 8.64 15.5519C8.576 15.4559 8.576 15.1999 8.64 14.7839C8.704 14.3679 8.752 13.8719 8.784 13.2959V12.9599C8.816 12.4799 8.832 11.9679 8.832 11.4239L8.88 10.9919C8.88 10.7999 8.912 10.4159 8.976 9.83987C9.072 9.26387 9.152 8.65587 9.216 8.01587H9.12C5.728 8.94387 3.648 9.40787 2.88 9.40787L2.064 9.45587C1.584 9.45587 1.088 9.37587 0.576 9.21587C0.32 9.08787 0.128 8.75187 0 8.20787C0 7.15187 0.224 6.38387 0.672 5.90387C1.152 5.42387 2.032 4.97587 3.312 4.55987C3.632 4.52787 5.616 3.85587 9.264 2.54387L11.328 2.06387C11.712 1.93587 12.32 1.87187 13.152 1.87187C13.984 1.87187 14.672 1.77587 15.216 1.58387C15.792 1.35987 16.416 1.19987 17.088 1.10387C17.76 0.975867 18.464 0.847867 19.2 0.719866C19.552 0.591866 20.192 0.623867 21.12 0.815868C21.472 0.815868 22.032 1.18387 22.8 1.91987L23.088 2.59187C23.088 2.78387 23.136 2.92787 23.232 3.02387C23.36 3.88787 23.168 4.44787 22.656 4.70387C22.464 4.79987 22.128 4.92787 21.648 5.08787C21.008 5.08787 19.408 5.40787 16.848 6.04787C16.72 6.04787 16.08 6.14387 14.928 6.33587L14.88 6.95987V7.24787Z" fill="currentColor"/>
<path d="M112.023 19.0558C112.023 18.7678 111.991 18.4318 111.927 18.0478V17.7118C111.959 17.4878 111.943 17.2478 111.879 16.9918C111.879 16.6718 111.911 16.3838 111.975 16.1278C111.975 15.4878 112.055 15.0718 112.215 14.8798C112.215 14.7198 112.439 14.3518 112.887 13.7758C113.015 13.6478 113.255 13.4398 113.607 13.1518C114.119 12.9918 114.471 12.8958 114.663 12.8638C114.791 12.7358 115.223 12.7838 115.959 13.0078C116.279 13.0398 116.775 13.1518 117.447 13.3438C117.671 13.4078 117.959 13.6638 118.311 14.1118C118.247 14.2398 118.135 14.7198 117.975 15.5518C117.847 16.3518 117.799 17.0078 117.831 17.5198C118.023 17.3598 118.359 17.0238 118.839 16.5118C119.319 15.9998 119.575 15.7278 119.607 15.6958C120.439 15.3118 121.255 15.0398 122.055 14.8798C123.207 14.7838 123.959 14.8638 124.311 15.1198C124.599 15.2158 124.823 15.3598 124.983 15.5518C125.271 15.8078 125.511 16.2558 125.703 16.8958C125.895 17.5038 125.879 17.8878 125.655 18.0478C125.463 18.2078 124.823 18.3358 123.735 18.4318C123.671 18.4318 123.447 18.5598 123.063 18.8158L120.567 20.7838C120.055 21.0398 119.703 21.2638 119.511 21.4558L118.599 23.1358C118.567 23.1998 118.535 23.6158 118.503 24.3838C118.471 25.1518 118.471 25.7118 118.503 26.0638C118.535 26.3838 118.535 27.4558 118.503 29.2798V31.3438C118.503 32.4638 118.487 33.1038 118.455 33.2638C118.423 33.4558 118.295 33.7758 118.071 34.2238C117.975 34.3838 117.671 34.4638 117.159 34.4638C115.911 35.3918 115.111 35.3438 114.759 34.3198L114.135 33.9358C113.879 33.8078 113.719 33.6478 113.655 33.4558C113.399 33.1038 113.271 32.8958 113.271 32.8318L113.079 32.1598L112.791 31.5838C112.695 31.5518 112.615 30.9438 112.551 29.7598C112.487 28.5438 112.455 27.8078 112.455 27.5518C112.455 27.2638 112.423 26.9598 112.359 26.6398C112.583 26.4158 112.679 26.0318 112.647 25.4878C112.647 24.9438 112.615 24.5278 112.551 24.2398C112.487 23.9198 112.487 23.7278 112.551 23.6638C112.615 23.5678 112.599 23.1198 112.503 22.3198C112.407 22.1918 112.391 21.9518 112.455 21.5998L112.023 19.0558Z" fill="currentColor"/>
<path d="M102.424 15.5998C102.36 15.4398 102.136 15.3758 101.752 15.4078C101.4 15.4398 101.128 15.6318 100.936 15.9838C99.6238 18.0638 98.9198 20.2878 98.8238 22.6558C99.9118 22.9118 100.84 22.4318 101.608 21.2158C102.6 18.0798 102.872 16.2078 102.424 15.5998ZM98.6797 34.6558L98.1998 34.5598L97.5277 33.8878C97.3357 33.8878 97.1917 33.8078 97.0957 33.6478C96.7437 33.2318 96.1038 32.3998 95.1758 31.1518L94.4557 28.5118C94.4557 27.9998 94.3598 27.5518 94.1678 27.1678C93.8478 25.7278 93.6558 24.9118 93.5918 24.7198C93.5278 24.4958 93.4798 23.9038 93.4478 22.9438C93.4478 21.9838 93.4958 21.2798 93.5918 20.8318C93.6878 20.2238 94.2798 18.7198 95.3678 16.3198C95.6558 16.0318 95.8318 15.6478 95.8958 15.1678L96.6637 14.0638C97.3677 13.2318 98.1198 12.6238 98.9198 12.2398C98.9198 12.1758 99.4637 12.0158 100.552 11.7598C100.776 11.7278 101.288 11.8078 102.088 11.9998C104.008 12.4478 105.208 13.0078 105.688 13.6798L105.832 13.9198C106.44 14.7838 106.792 16.1118 106.888 17.9038C106.792 18.7038 106.712 19.3758 106.648 19.9198C106.584 20.4638 106.232 21.4558 105.592 22.8958C105.112 23.7918 104.648 24.5118 104.2 25.0558C103.496 25.5678 103.016 25.8238 102.76 25.8238C102.632 25.8878 102.36 25.9198 101.944 25.9198H100.84C100.744 25.8878 100.536 25.8718 100.216 25.8718C99.8958 25.8718 99.4318 25.7918 98.8238 25.6318C98.8238 26.3358 99.0157 27.3438 99.3997 28.6558C99.8157 29.9358 100.152 30.7198 100.408 31.0078C101.08 31.5198 101.608 31.8558 101.992 32.0158C102.376 32.1758 102.888 32.2078 103.528 32.1118C104.168 31.9838 104.632 31.7598 104.92 31.4398L106.168 29.9038C106.968 28.8158 107.784 28.7198 108.616 29.6158C109 30.0318 109.144 30.4478 109.048 30.8638C108.984 31.2478 108.664 32.0318 108.088 33.2158C107.608 33.9838 107.096 34.6238 106.552 35.1358C105.56 35.6478 104.968 35.9038 104.776 35.9038C104.488 35.9358 104.04 35.8878 103.432 35.7598C103.112 35.9198 102.568 35.9038 101.8 35.7118C101.8 35.6478 101.704 35.5998 101.512 35.5678C101.352 35.5678 101.128 35.5198 100.84 35.4238L100.936 35.3758C100.872 35.3758 100.68 35.3758 100.36 35.3758L99.0158 34.6558H98.6797Z" fill="currentColor"/>
<path d="M86.7813 1.91969L87.9813 1.67969C88.7493 1.77569 89.3253 1.98369 89.7093 2.30369C90.1253 2.62369 90.3173 2.99169 90.2853 3.40769C89.8053 5.03969 89.4213 6.75169 89.1333 8.54369V9.26369C89.0053 10.7677 88.8293 12.0477 88.6053 13.1037L87.4533 24.0477V27.3597C87.4213 29.8877 87.5653 31.8877 87.8853 33.3597L87.9813 33.9357C87.9493 34.3197 87.6613 34.5757 87.1173 34.7037C86.6053 34.8637 86.2693 34.9277 86.1093 34.8957C85.9493 34.8637 85.7733 34.8157 85.5813 34.7517L84.2853 34.2717C83.7733 34.0157 83.2133 33.5517 82.6053 32.8797C82.2213 32.5277 82.0613 32.2717 82.1253 32.1117C82.0613 31.9837 81.9013 30.5277 81.6453 27.7437C81.7093 27.1677 81.7413 26.6877 81.7413 26.3037V25.4877C81.7413 24.8477 81.7573 24.3837 81.7893 24.0957C81.7893 24.0317 81.8213 23.6477 81.8853 22.9437C82.0453 21.1197 82.1413 20.1277 82.1733 19.9677V19.1997C82.1733 17.3117 82.3333 15.7917 82.6533 14.6397C82.5893 14.3837 82.5573 14.1437 82.5573 13.9197C82.8773 13.3117 82.9893 12.0637 82.8933 10.1757C83.4373 8.25569 83.7573 6.97569 83.8533 6.33569C83.9493 5.66369 84.0933 5.15169 84.2853 4.79969C84.2853 4.22369 84.5413 3.64769 85.0533 3.07169C85.5653 2.46369 86.1413 2.07969 86.7813 1.91969Z" fill="currentColor"/>
<path d="M65.7413 25.008C65.7413 25.424 65.7093 25.936 65.6453 26.544C65.5813 27.152 65.7413 28.128 66.1253 29.472C66.2853 30.4 66.4453 30.992 66.6053 31.248C66.8293 31.248 67.0373 31.008 67.2293 30.528C67.2293 30.496 67.3413 30.272 67.5653 29.856C67.6613 29.824 67.9813 29.376 68.5253 28.512C68.7173 28.128 68.9093 27.744 69.1013 27.36C69.1973 26.688 69.4213 26.096 69.7733 25.584C70.1253 25.04 70.3973 24.576 70.5893 24.192C70.7813 23.776 70.8613 23.232 70.8293 22.56C70.8293 22.304 70.7173 21.536 70.4933 20.256C70.4293 20.096 70.3013 19.744 70.1093 19.2C69.9493 18.624 69.7253 18.224 69.4373 18C69.1813 17.744 68.9093 17.632 68.6213 17.664C68.3333 17.696 67.9813 18.144 67.5653 19.008C67.0533 20.032 66.6853 21.024 66.4613 21.984C66.2373 22.944 66.0933 23.52 66.0293 23.712C65.9333 24 65.8853 24.256 65.8853 24.48L65.7413 25.008ZM71.7893 0.24C72.4613 0.143999 72.8613 0.112 72.9893 0.144001C73.1493 0.144001 73.4853 0.0960007 73.9973 0C74.6693 0.799999 75.0853 1.392 75.2453 1.776L75.5813 3.024C75.8373 3.28 75.9653 3.52 75.9653 3.744C76.0293 4.224 76.0773 4.64 76.1093 4.992C76.1733 5.312 76.2053 5.76 76.2053 6.336C76.2053 7.168 76.0933 9.056 75.8693 12C75.6453 14.912 75.4373 17.008 75.2453 18.288L75.5333 20.928C76.0133 23.552 76.3173 24.976 76.4453 25.2C76.6373 26.416 77.0373 27.536 77.6453 28.56L77.7413 28.944L78.4613 30.144C78.6853 30.624 78.7813 31.104 78.7493 31.584C78.7493 32.064 78.7013 32.4 78.6053 32.592C78.1573 33.488 77.7093 33.968 77.2613 34.032C77.0373 34.128 76.6853 34.128 76.2053 34.032C75.7893 34.032 75.4853 33.936 75.2933 33.744C75.1973 33.744 75.0693 33.728 74.9093 33.696C74.4293 33.792 74.1253 33.68 73.9973 33.36C73.8053 33.168 73.5813 32.832 73.3253 32.352C73.1013 31.84 72.8293 31.408 72.5093 31.056L72.2693 30.528C72.1413 29.952 72.0613 29.664 72.0293 29.664C72.0293 29.632 72.0133 29.552 71.9813 29.424L70.3013 32.064C70.2373 32.288 69.8213 32.928 69.0533 33.984L68.4293 34.512C68.0453 34.704 67.4853 34.752 66.7493 34.656C66.6853 34.688 66.4133 34.704 65.9333 34.704L63.2453 34.224C62.6693 33.84 62.1733 33.232 61.7573 32.4C61.5013 31.952 61.3733 31.584 61.3733 31.296C61.3733 30.976 61.2293 30.352 60.9413 29.424L60.8453 28.704V28.416L60.7973 27.744C60.8613 27.616 60.8293 27.344 60.7013 26.928L60.6533 26.496V25.68C60.6533 25.488 60.7013 25.12 60.7973 24.576C60.8293 24.16 60.8293 23.696 60.7973 23.184C60.7973 22.64 60.8133 22.256 60.8453 22.032C60.7813 21.712 60.7973 21.44 60.8933 21.216C60.8293 20.992 60.8453 20.608 60.9413 20.064C60.9413 19.712 61.2133 18.912 61.7573 17.664C61.6613 17.152 61.8853 16.576 62.4293 15.936C62.4293 15.904 62.5893 15.664 62.9093 15.216C63.0053 15.12 63.2453 14.992 63.6293 14.832L64.7813 14.064C65.9973 13.712 67.1173 13.648 68.1413 13.872L70.0613 14.544C70.1253 14.064 70.1093 12.48 70.0133 9.792C70.0133 9.408 70.0613 8.576 70.1573 7.296C70.2853 5.984 70.3813 4.72 70.4453 3.504L71.0213 1.488C71.0213 1.136 71.0853 0.879999 71.2133 0.719999L71.7893 0.24Z" fill="currentColor"/>
<path d="M48.9149 21.024L48.8189 20.304C48.7229 20.176 48.6589 20.016 48.6269 19.824C48.6269 19.6 48.5789 19.264 48.4829 18.816C48.4829 18.24 48.3389 17.728 48.0509 17.28C47.9549 17.024 47.5709 16.944 46.8989 17.04C46.4509 17.488 45.9229 18.752 45.3149 20.832C45.3149 20.864 45.2669 20.992 45.1709 21.216C45.0429 21.504 44.9149 21.984 44.7869 22.656C44.6589 23.296 44.5789 23.664 44.5469 23.76C44.4829 23.952 44.4509 24.128 44.4509 24.288C44.3869 24.416 44.3549 24.624 44.3549 24.912L44.1629 25.824C44.0349 26.016 44.0029 26.256 44.0669 26.544V27.216C44.0989 27.312 44.0829 27.584 44.0189 28.032V28.704L44.1149 30.336C44.1149 30.72 44.4349 31.344 45.0749 32.208C45.3309 32.272 45.4909 32.256 45.5549 32.16C46.1949 31.52 46.5469 30.864 46.6109 30.192L46.7549 29.568C46.9149 29.408 47.0429 28.928 47.1389 28.128L47.3789 27.312C47.3789 27.024 47.4429 26.72 47.5709 26.4C47.6989 26.08 47.7789 25.84 47.8109 25.68C47.8109 25.424 48.0189 24.784 48.4349 23.76C48.4029 23.664 48.3869 23.568 48.3869 23.472V23.136C48.7389 21.76 48.9149 21.056 48.9149 21.024ZM55.0109 5.51999C55.0109 6.63998 54.9469 7.32798 54.8189 7.58398L54.4829 10.704V12.336C54.4509 12.88 54.4349 13.696 54.4349 14.784C54.4349 15.872 54.4509 16.784 54.4829 17.52C54.5469 18.224 54.5149 18.816 54.3869 19.296C54.4509 19.36 54.4829 19.472 54.4829 19.632L54.5309 20.016L54.4829 21.12V23.136C54.5149 23.488 54.5309 24.096 54.5309 24.96C54.5949 25.696 54.6269 26.288 54.6269 26.736C54.6269 27.184 54.6749 27.632 54.7709 28.08V28.704L54.9629 30.672V32.304C55.0269 32.528 55.0589 32.752 55.0589 32.976C55.0589 33.168 55.1229 33.504 55.2509 33.984C55.4109 34.496 55.4749 34.96 55.4429 35.376C54.5469 36.432 53.4109 36.688 52.0349 36.144C51.7469 36.112 51.4429 35.952 51.1229 35.664C50.8349 35.376 50.6589 35.088 50.5949 34.8L50.5469 33.84C50.3869 33.808 50.2909 33.536 50.2589 33.024C50.1309 32.832 50.0829 32.672 50.1149 32.544C50.2109 32.384 50.1309 32.112 49.8749 31.728L49.3469 32.64C49.1869 32.896 49.0109 33.056 48.8189 33.12L48.6269 33.696C48.1789 34.176 47.8429 34.576 47.6189 34.896L47.0429 35.472C46.2749 35.632 45.2189 35.568 43.8749 35.28C43.5549 35.28 43.2989 35.248 43.1069 35.184H42.7709C42.7069 35.248 42.3549 35.104 41.7149 34.752C41.1709 34.528 40.8829 34.32 40.8509 34.128L41.1389 34.176C40.6909 33.984 40.5309 33.68 40.6589 33.264C40.2749 33.104 40.0349 32.752 39.9389 32.208L39.5069 30.576C39.4429 30.16 39.4589 29.712 39.5549 29.232C39.4909 29.104 39.5709 28.672 39.7949 27.936L39.6509 27.504L39.5549 26.64C39.4589 26.512 39.4749 26.224 39.6029 25.776L39.3149 25.296C39.3149 24.016 39.3629 23.232 39.4589 22.944L39.5069 22.32C39.3469 22.064 39.3949 21.52 39.6509 20.688L40.3229 18.48C40.3229 18.416 40.3709 18.128 40.4669 17.616C40.6269 16.816 40.8189 16.304 41.0429 16.08L41.9069 14.64C42.0669 14.48 42.2429 14.24 42.4349 13.92C42.7549 13.344 43.4269 13.056 44.4509 13.056C45.5069 12.896 47.2029 13.024 49.5389 13.44V11.76L49.3949 9.74399C49.3949 8.78399 49.3629 7.90398 49.2989 7.10399C49.2669 6.30399 49.2829 5.66399 49.3469 5.18398C49.3789 5.15198 49.5389 4.49599 49.8269 3.21599C50.1149 1.93599 50.5949 0.975985 51.2669 0.335984C51.4909 0.207985 51.8909 0.127986 52.4669 0.095984C53.0749 0.0639845 53.4429 0.095985 53.5709 0.191986C53.6989 0.287984 53.8749 0.367984 54.0989 0.431985C54.9949 0.687986 55.4429 1.50399 55.4429 2.87999L55.0109 5.51999Z" fill="currentColor"/>
<path d="M29.5799 19.0559C29.3559 17.7759 28.7319 17.1839 27.7079 17.2799C27.1319 17.3119 26.6359 17.6959 26.2199 18.4319C25.6439 19.5519 25.3879 21.0079 25.4519 22.7999C25.5479 24.5599 25.6759 25.8399 25.8359 26.6399C26.0279 27.4079 26.3479 28.0799 26.7959 28.6559C27.0519 29.1039 27.4359 29.3119 27.9479 29.2799C28.8439 29.2799 29.4999 28.5279 29.9159 27.0239L30.2999 25.8719C30.4599 25.7119 30.4919 25.5519 30.3959 25.3919C30.7159 24.5919 30.8919 23.6479 30.9239 22.5599C30.6039 22.3359 30.4119 22.1279 30.3479 21.9359C30.1559 21.3919 30.0599 21.0239 30.0599 20.8319C29.8359 20.6719 29.7079 20.3679 29.6759 19.9199C29.6439 19.4719 29.6119 19.1839 29.5799 19.0559ZM20.7959 23.5679L20.9879 21.1199C21.2119 18.9119 21.8839 17.0239 23.0039 15.4559C24.0919 14.1439 25.6279 13.4719 27.6119 13.4399H27.8999C29.7559 13.4399 31.0999 13.8399 31.9319 14.6399C32.8279 15.3439 33.4839 16.1119 33.8999 16.9439C34.3479 17.7759 34.6359 18.3839 34.7639 18.7679C34.8919 19.1519 34.9719 19.7119 35.0039 20.4479C35.0679 21.8239 34.7959 22.6079 34.1879 22.7999C34.6359 25.8399 34.3639 28.2559 33.3719 30.0479C33.0519 30.7839 32.5879 31.5839 31.9799 32.4479C31.5319 33.0239 30.7319 33.3439 29.5799 33.4079C28.4279 33.4079 27.4199 33.3439 26.5559 33.2159C25.7239 33.0879 24.7959 32.6879 23.7719 32.0159C22.7479 31.3119 22.0279 30.1759 21.6119 28.6079C21.1639 27.1039 20.8919 25.4239 20.7959 23.5679Z" fill="currentColor"/>
<path d="M14.88 7.24787C14.816 7.82387 14.784 8.41587 14.784 9.02387C14.784 10.1759 14.72 11.2159 14.592 12.1439C14.464 13.0719 14.384 13.7119 14.352 14.0639C14.32 14.3839 14.272 14.7039 14.208 15.0239V15.3599C14.208 15.9359 14.08 16.5119 13.824 17.0879L13.68 19.2479L13.488 23.8079V26.2079C13.488 27.4239 13.424 28.0799 13.296 28.1759L13.344 29.4239V29.9519L13.296 30.5279C13.296 30.6559 13.264 30.7199 13.2 30.7199C13.264 31.1039 13.104 31.5199 12.72 31.9679C12.368 32.3839 11.92 32.6559 11.376 32.7839L10.512 32.9279C10.384 32.9279 10.208 32.9439 9.984 32.9759C9.76 32.9759 9.568 32.9439 9.408 32.8799C9.248 32.8159 9.088 32.7359 8.928 32.6399C8.608 32.4479 8.384 32.0799 8.256 31.5359C8.16 31.3759 7.968 30.3999 7.68 28.6079C7.68 28.2239 7.648 27.7439 7.584 27.1679L7.728 26.0159V25.1039C7.728 24.5279 7.792 24.1279 7.92 23.9039C7.792 23.7119 7.872 23.2959 8.16 22.6559C7.936 22.3679 7.952 21.7279 8.208 20.7359C8.08 20.3199 8.08 20.0479 8.208 19.9199C8.272 19.7279 8.304 19.2799 8.304 18.5759L8.352 18.0959C8.352 17.1679 8.448 16.3199 8.64 15.5519C8.576 15.4559 8.576 15.1999 8.64 14.7839C8.704 14.3679 8.752 13.8719 8.784 13.2959V12.9599C8.816 12.4799 8.832 11.9679 8.832 11.4239L8.88 10.9919C8.88 10.7999 8.912 10.4159 8.976 9.83987C9.072 9.26387 9.152 8.65587 9.216 8.01587H9.12C5.728 8.94387 3.648 9.40787 2.88 9.40787L2.064 9.45587C1.584 9.45587 1.088 9.37587 0.576 9.21587C0.32 9.08787 0.128 8.75187 0 8.20787C0 7.15187 0.224 6.38387 0.672 5.90387C1.152 5.42387 2.032 4.97587 3.312 4.55987C3.632 4.52787 5.616 3.85587 9.264 2.54387L11.328 2.06387C11.712 1.93587 12.32 1.87187 13.152 1.87187C13.984 1.87187 14.672 1.77587 15.216 1.58387C15.792 1.35987 16.416 1.19987 17.088 1.10387C17.76 0.975867 18.464 0.847867 19.2 0.719866C19.552 0.591866 20.192 0.623867 21.12 0.815868C21.472 0.815868 22.032 1.18387 22.8 1.91987L23.088 2.59187C23.088 2.78387 23.136 2.92787 23.232 3.02387C23.36 3.88787 23.168 4.44787 22.656 4.70387C22.464 4.79987 22.128 4.92787 21.648 5.08787C21.008 5.08787 19.408 5.40787 16.848 6.04787C16.72 6.04787 16.08 6.14387 14.928 6.33587L14.88 6.95987V7.24787Z" fill="currentColor"/>
</svg>
